<svg width="166" height="50" viewBox="0 0 166 50" fill="none" xmlns="http://www.w3.org/2000/svg">
<path fill-rule="evenodd" clip-rule="evenodd" d="M28.1418 0.511686L19.3966 12.0525C18.7989 12.8408 18.7199 14.2536 19.2189 15.2123L26.5301 29.2411C27.0286 30.1978 27.9177 30.3359 28.5143 29.5495L37.2606 18.0067C37.8572 17.2196 37.9372 15.8052 37.4371 14.8477L30.1267 0.818165C29.8369 0.264426 29.4179 -0.0151345 29.0001 0.000631665C28.6968 0.012937 28.3935 0.180212 28.1418 0.511686ZM52.4405 12.2417C48.2517 12.2417 44.8574 15.7333 44.8574 20.0386V34.8423H47.7778V20.0386H47.7823C47.7823 17.393 49.8672 15.2484 52.4416 15.2484C55.0146 15.2484 57.0994 17.393 57.0994 20.0386H57.1035V21.7333H49.6009V24.735H57.1035V34.8423H60.0255V20.0386C60.0255 15.7333 56.6296 12.2417 52.4405 12.2417ZM121.711 34.8423H124.631V12.2417H121.711V34.8423ZM69.3938 19.3823C65.2066 19.3823 61.8119 22.8728 61.8119 27.1789H61.8066V41.5738H64.7271V27.1789H64.7413C64.7413 24.5156 66.8415 22.3564 69.4301 22.3564C72.0206 22.3564 74.1201 24.5156 74.1201 27.1789C74.1201 29.8414 72.0206 32.0006 69.4301 32.0006C67.9695 32.0006 66.6642 31.3127 65.8046 30.2352V34.0464C66.8732 34.6382 68.0967 34.9754 69.3938 34.9754C73.5837 34.9754 76.9792 31.4838 76.9792 27.1789C76.9792 22.8728 73.5837 19.3823 69.3938 19.3823ZM78.2707 27.1789C78.2707 22.8728 81.6647 19.3823 85.8534 19.3823C90.0411 19.3823 93.4365 22.8728 93.4365 27.1789C93.4365 31.4838 90.0411 34.9754 85.8534 34.9754C84.5567 34.9754 83.331 34.6382 82.2631 34.0464V30.2352C83.123 31.3127 84.4276 32.0006 85.8886 32.0006C88.4803 32.0006 90.5797 29.8414 90.5797 27.1789C90.5797 24.5156 88.4803 22.3564 85.8886 22.3564C83.2992 22.3564 81.2005 24.5156 81.2005 27.1789H81.1852V41.5738H78.2655V27.1789H78.2707ZM116.624 15.2465C114.049 15.2465 111.962 17.3926 111.962 20.0386V22.0406H120.032V25.0431H111.962V34.8423H109.041V20.0386C109.041 15.7333 112.436 12.2425 116.624 12.2417H120.301V15.245H116.624V15.2465ZM136.857 19.48V28.9178H136.856C136.818 30.8166 135.315 32.3448 133.456 32.3448C131.601 32.3448 130.095 30.8166 130.06 28.9178H130.056V19.48H127.137V28.9274H127.141C127.176 31.9625 129.237 34.4924 131.998 35.1654V41.5734H134.917V35.1654C137.678 34.4924 139.739 31.9625 139.774 28.9274H139.776V19.48H136.857ZM151.089 31.3289C152.223 30.6574 152.975 29.5684 153.272 28.3602H156.252C155.916 30.6163 154.624 32.7017 152.549 33.9326C148.922 36.0849 144.286 34.8066 142.191 31.0781C140.097 27.3496 141.339 22.5813 144.966 20.4283C148.593 18.2752 153.232 19.5527 155.327 23.2816C155.577 23.7265 155.776 24.1856 155.933 24.6544L149.796 28.2968L146.761 30.0991L145.3 27.4981L151.859 23.6054C150.4 22.2656 148.214 21.9691 146.428 23.0297C144.199 24.3541 143.434 27.2831 144.721 29.5773C146.009 31.8687 148.86 32.6544 151.089 31.3289ZM165.407 19.3823C163.646 19.3823 162.031 19.9999 160.746 21.0332V19.4531H157.824V34.842H160.746V27.1789H160.747C160.747 24.5317 162.834 22.386 165.407 22.386V22.3844H165.999V19.3823H165.407ZM97.258 24.2222L104.522 27.7046C106.346 28.5783 107.135 30.8063 106.283 32.6802C105.666 34.0422 104.354 34.8378 102.984 34.8401V34.8421H94.4917V31.8415H102.983V31.8373C103.254 31.8392 103.517 31.6819 103.638 31.4123C103.806 31.0416 103.651 30.6017 103.29 30.4295C103.288 30.4279 103.287 30.4279 103.287 30.4279L103.288 30.426L96.0233 26.9428C94.2115 26.063 93.4272 23.8434 94.2759 21.9742C94.8938 20.6121 96.2055 19.8169 97.577 19.8154V19.8115H105.865V22.814H97.577V22.8198C97.307 22.8209 97.0474 22.9759 96.9262 23.2443C96.7613 23.6092 96.9102 24.0403 97.2602 24.2195L97.258 24.2222ZM0.206822 15.8333L7.40316 29.9263C7.89426 30.8861 9.10537 31.6656 10.1059 31.6633L24.7855 31.6314C25.7879 31.6291 26.2012 30.8481 25.7104 29.8859L18.5137 15.7941C18.0226 14.8323 16.8119 14.0548 15.8106 14.0571L1.13105 14.0886C1.11964 14.0886 1.10852 14.0888 1.09739 14.089C1.08626 14.0892 1.07513 14.0894 1.06373 14.0894C0.111444 14.1263 -0.273433 14.8931 0.206822 15.8333ZM32.4473 40.6138L28.0895 32.2539C27.7977 31.6921 28.0274 31.2318 28.6026 31.2099H28.6326L37.3793 31.1153C37.9747 31.1088 38.7007 31.5656 38.9977 32.1363L43.354 40.4954C43.6502 41.0661 43.4094 41.5337 42.812 41.5398L34.0657 41.6348C33.4688 41.6417 32.7435 41.1841 32.4473 40.6138ZM20.8835 39.2707L26.0956 32.394C26.2441 32.1956 26.4259 32.0952 26.6058 32.0887C26.8556 32.0802 27.1059 32.2467 27.2775 32.5771L31.6346 40.937C31.9308 41.5057 31.8833 42.349 31.528 42.8193L26.317 49.6953C25.961 50.1648 25.4321 50.0829 25.134 49.5122L20.7773 41.1527C20.4807 40.5828 20.5267 39.7403 20.8835 39.2707Z" fill="#FFFFFE"/>
</svg>
