<svg width="143" height="40" viewBox="0 0 143 40" fill="none" xmlns="http://www.w3.org/2000/svg">
<path d="M0.182066 12.6757L6.35073 23.9632C6.77826 24.7479 7.81655 25.3515 8.67161 25.3515H21.2532C22.1083 25.3515 22.4748 24.7479 22.0472 23.9632L15.8175 12.6154C15.39 11.8307 14.3517 11.2271 13.4966 11.2271H0.914977H0.853901C0.12099 11.2874 -0.245465 11.891 0.182066 12.6757Z" fill="black" fill-opacity="0.87"/>
<path d="M24.0605 25.7739L27.7861 32.4739C28.0304 32.9568 28.6412 33.319 29.1908 33.319L36.6421 33.1983C37.1307 33.1983 37.375 32.8361 37.1307 32.3532L33.4051 25.6532C33.1608 25.1703 32.55 24.8081 32.0003 24.8081L24.488 24.8685C23.9994 24.9892 23.7551 25.3514 24.0605 25.7739Z" fill="black" fill-opacity="0.87"/>
<path d="M24.0624 0.422526L16.6112 9.65774C16.1226 10.2613 16.0615 11.4082 16.489 12.1929L22.7188 23.42C23.1463 24.2047 23.8792 24.3254 24.4289 23.6615L31.9412 14.4262C32.4298 13.8226 32.4909 12.6758 32.0634 11.8911L25.7726 0.66397C25.5283 0.241444 25.1618 0 24.7953 0C24.551 0 24.3067 0.120722 24.0624 0.422526Z" fill="black" fill-opacity="0.87"/>
<path d="M22.3532 25.8947L17.8947 31.3876C17.5893 31.7497 17.5282 32.4137 17.8336 32.8966L21.5592 39.5967C21.8035 40.0795 22.2921 40.1399 22.5975 39.7174L27.056 34.2245C27.3614 33.8624 27.4225 33.1984 27.1171 32.7155L23.3915 26.0155C23.2693 25.774 23.025 25.5929 22.8418 25.6533C22.5975 25.6533 22.4753 25.7137 22.3532 25.8947Z" fill="black" fill-opacity="0.87"/>
<path d="M106.637 9.77832H104.133V27.8262H106.637V9.77832Z" fill="black" fill-opacity="0.87"/>
<path d="M59.3647 15.5127C55.7612 15.5127 52.8906 18.2893 52.8906 21.7299V33.2588H55.3947V21.7299C55.3947 19.6172 57.1659 17.8668 59.4258 17.8668C61.6245 17.8668 63.4568 19.6172 63.4568 21.7299C63.4568 23.8425 61.6856 25.593 59.4258 25.593C58.2042 25.593 57.0438 25.0497 56.3109 24.2047V27.2227C57.227 27.7056 58.2653 27.947 59.3647 27.947C62.9682 27.947 65.8387 25.1704 65.8387 21.7299C65.8387 18.2893 62.9682 15.5127 59.3647 15.5127Z" fill="black" fill-opacity="0.87"/>
<path d="M73.474 15.5127C69.8706 15.5127 67 18.2893 67 21.7299V33.2588H69.5041V21.7299C69.5041 19.6172 71.2753 17.8668 73.5351 17.8668C75.7339 17.8668 77.5661 19.6172 77.5661 21.7299C77.5661 23.8425 75.7949 25.593 73.5351 25.593C72.3136 25.593 71.1532 25.0497 70.4203 24.2047V27.2227C71.3364 27.7056 72.3747 27.947 73.474 27.947C77.0775 27.947 79.9481 25.1704 79.9481 21.7299C79.9481 18.2893 77.0165 15.5127 73.474 15.5127Z" fill="black" fill-opacity="0.87"/>
<path d="M44.8881 9.77832C41.2846 9.77832 38.4141 12.5549 38.4141 15.9955V27.8262H40.9182V16.0559C40.9182 13.9432 42.6894 12.2531 44.8881 12.2531C47.0868 12.2531 48.858 13.9432 48.858 16.0559V17.3838H42.4451V19.7982H48.858V27.8866H51.3621V16.0559C51.3621 12.5549 48.4305 9.77832 44.8881 9.77832Z" fill="black" fill-opacity="0.87"/>
<path d="M95.7658 16.056C95.7658 13.9434 97.537 12.2533 99.7358 12.2533H102.912V9.83887H99.7358C96.1323 9.83887 93.2617 12.6155 93.2617 16.056V27.8868H95.7658V20.0399H102.667V17.6254H95.7658V16.056Z" fill="black" fill-opacity="0.87"/>
<path d="M117.082 15.5732V23.1184C117.021 24.6274 115.739 25.8346 114.151 25.8346C112.563 25.8346 111.28 24.6274 111.219 23.1184V15.5732H108.715V23.1184C108.715 25.5328 110.486 27.5851 112.868 28.1283V33.259H115.372V28.1283C117.754 27.5851 119.525 25.5931 119.525 23.1184V15.5732H117.082Z" fill="black" fill-opacity="0.87"/>
<path d="M131.128 22.6954C130.884 23.6612 130.212 24.5063 129.235 25.0495C127.341 26.136 124.898 25.4721 123.799 23.6612C122.7 21.8504 123.371 19.4963 125.265 18.4098C126.792 17.5648 128.685 17.8062 129.907 18.8927L124.288 22.0315L125.509 24.0838L133.327 19.7378C133.205 19.3756 133.021 19.0134 132.838 18.6513C131.067 15.6936 127.097 14.6674 123.982 16.3576C120.867 18.108 119.829 21.9108 121.6 24.8684C123.371 27.8261 127.341 28.8523 130.456 27.1622C132.227 26.1964 133.327 24.5063 133.632 22.6954H131.128Z" fill="black" fill-opacity="0.87"/>
<path d="M141.513 15.5127C139.986 15.5127 138.643 15.9956 137.543 16.8406V15.5731H135.039V27.8867H137.543V21.7299C137.543 19.6172 139.314 17.9271 141.513 17.9271H142.002V15.5127H141.513Z" fill="black" fill-opacity="0.87"/>
<path d="M89.4126 22.1523L83.1829 19.3757C82.8775 19.255 82.7553 18.8929 82.8775 18.5911C82.9997 18.3496 83.1829 18.2289 83.4272 18.2289H90.512V15.8145H83.4272C82.2667 15.8145 81.1063 16.4784 80.6177 17.5649C79.8848 19.0739 80.5566 20.8244 82.0835 21.5487L88.3133 24.3253C88.6186 24.4461 88.7408 24.8082 88.6186 25.11C88.4965 25.3515 88.3133 25.4722 88.0689 25.4722H80.8009V27.8866H88.0689C89.2294 27.8866 90.3898 27.2227 90.8784 26.1362C91.6724 24.6271 91.0006 22.8767 89.4126 22.1523Z" fill="black" fill-opacity="0.87"/>
</svg>
